<svg xmlns="http://www.w3.org/2000/svg" viewBox="0 0 32 32">
  <defs>
    <linearGradient id="bg" x1="0%" y1="0%" x2="100%" y2="100%">
      <stop offset="0%" style="stop-color:#E8734A"/>
      <stop offset="100%" style="stop-color:#DA2828"/>
    </linearGradient>
  </defs>
  <!-- Background -->
  <rect width="32" height="32" rx="8" fill="url(#bg)"/>
  <!-- Rocket (Lucide-style) -->
  <g transform="translate(6, 5)" fill="none" stroke="white" stroke-width="1.5" stroke-linecap="round" stroke-linejoin="round">
    <!-- Body -->
    <path d="M10.5 2C10.5 2 15 5 15 11C15 14 13 17 10.5 19C8 17 6 14 6 11C6 5 10.5 2 10.5 2Z"/>
    <!-- Window -->
    <circle cx="10.5" cy="10" r="2" fill="white"/>
    <!-- Left Fin -->
    <path d="M6 13L3 17L6 15.5"/>
    <!-- Right Fin -->
    <path d="M15 13L18 17L15 15.5"/>
    <!-- Flame -->
    <path d="M8.5 19C8.5 19 10.5 22 10.5 22C10.5 22 12.5 19 12.5 19" stroke="#FCD34D" stroke-width="2"/>
  </g>
</svg>
