<svg xmlns="http://www.w3.org/2000/svg" viewBox="0 0 200 40">
  <defs>
    <linearGradient id="iconBgWhite" x1="0%" y1="0%" x2="100%" y2="100%">
      <stop offset="0%" style="stop-color:#E8734A"/>
      <stop offset="100%" style="stop-color:#DA2828"/>
    </linearGradient>
  </defs>

  <!-- Icon Background -->
  <rect x="0" y="4" width="32" height="32" rx="8" fill="url(#iconBgWhite)"/>

  <!-- Rocket (Lucide-style) -->
  <g transform="translate(6, 9)" fill="none" stroke="white" stroke-width="1.5" stroke-linecap="round" stroke-linejoin="round">
    <path d="M10 2C10 2 14 5 14 10C14 13 12.5 15.5 10 17.5C7.5 15.5 6 13 6 10C6 5 10 2 10 2Z"/>
    <circle cx="10" cy="9" r="2" fill="white"/>
    <path d="M6 12L3.5 15.5L6 14"/>
    <path d="M14 12L16.5 15.5L14 14"/>
    <path d="M8 17.5L10 20L12 17.5" stroke="#FCD34D" stroke-width="1.5"/>
  </g>

  <!-- Text (White version for dark backgrounds) -->
  <text x="42" y="28" font-family="system-ui, -apple-system, BlinkMacSystemFont, 'Segoe UI', Roboto, sans-serif" font-size="22" font-weight="700">
    <tspan fill="white">Offen</tspan><tspan fill="#DA2828">Boost</tspan>
  </text>
</svg>
