<?xml version="1.0" encoding="UTF-8"?> <svg xmlns="http://www.w3.org/2000/svg" id="ETL_Logo" data-name="ETL Logo" width="110.61" height="62" viewBox="0 0 110.61 62"><path id="Path_151" data-name="Path 151" d="M.611,73.526C.611,82.689.458,88.99,0,96.191c1.682-.165,3.745-.409,16.2-.409,7.029,0,10.62.327,13.37.409a18.809,18.809,0,0,1-.306-3.519,22.481,22.481,0,0,1,.306-3.682,141.25,141.25,0,0,1-17.494,1.063c-.153-3.273-.231-6.791-.231-10.226,0-3.519.077-7.039.077-10.475,5.806,0,11.535.245,17.341.738a27.25,27.25,0,0,1-.382-3.355,20.3,20.3,0,0,1,.382-3.682c-5.806.327-10.695.491-17.341.654,0-5.973,0-11.864.381-17.838,2.292,0,11.461.573,17.267.983a23.384,23.384,0,0,1-.306-3.684,20.042,20.042,0,0,1,.306-3.436c-2.063.245-8.48.409-15.967.409-4.508,0-9.091-.327-13.6-.409.458,7.2.611,13.5.611,22.664Z" transform="translate(0 -34.191)" fill="#58585a"></path><path id="Path_152" data-name="Path 152" d="M353.1,145.088c0,9.163-.153,15.464-.611,22.665a48.181,48.181,0,0,1,12.528,0c-.458-7.2-.611-13.5-.611-22.665l.186-15.372c0-3.108.006-5.312.052-6.822-4.029.7-7.275,1.118-11.719,1.483a49.072,49.072,0,0,1,.36,5.339Z" transform="translate(-303.329 -105.753)" fill="#58585a"></path><path id="Path_153" data-name="Path 153" d="M581.071,34.251c.458,7.2.611,13.5.611,22.665V68.044c0,9.163-.153,15.464-.611,22.665,1.68-.164,3.743-.409,16.2-.409,7.029,0,10.619.327,13.369.409a18.829,18.829,0,0,1-.3-3.519,22.507,22.507,0,0,1,.3-3.682,140.976,140.976,0,0,1-17.494,1.065c-.153-3.273-.229-6.791-.229-10.228,0-3.519.076-16.12.076-16.12s.17-18.889.552-24.862a83.08,83.08,0,0,1-12.469.888" transform="translate(-500.026 -28.71)" fill="#58585a"></path><path id="Path_154" data-name="Path 154" d="M259.941,5.546s4.551.132,11.359-.406A132.044,132.044,0,0,0,296.7,0l2.533,9.341c-12.371,3.7-26.664,6.318-39.557,5.913Z" transform="translate(-223.457)" fill="#007470"></path></svg> 