<?xml version="1.0" encoding="UTF-8" standalone="no"?>
<!-- Generator: Adobe Illustrator 27.8.0, SVG Export Plug-In . SVG Version: 6.00 Build 0)  -->

<svg
   version="1.1"
   id="Ebene_1"
   x="0px"
   y="0px"
   viewBox="0 0 976.18814 240.62901"
   xml:space="preserve"
   sodipodi:docname="kms_logo_top.svg"
   inkscape:version="1.2.2 (b0a8486541, 2022-12-01)"
   width="976.18817"
   height="240.62901"
   inkscape:export-filename="KMS-WSR_darkgray.png"
   inkscape:export-xdpi="300.20999"
   inkscape:export-ydpi="300.20999"
   xmlns:inkscape="http://www.inkscape.org/namespaces/inkscape"
   xmlns:sodipodi="http://sodipodi.sourceforge.net/DTD/sodipodi-0.dtd"
   xmlns:xlink="http://www.w3.org/1999/xlink"
   xmlns="http://www.w3.org/2000/svg"
   xmlns:svg="http://www.w3.org/2000/svg"><defs
   id="defs41" /><sodipodi:namedview
   id="namedview39"
   pagecolor="#ffffff"
   bordercolor="#cccccc"
   borderopacity="1"
   inkscape:showpageshadow="0"
   inkscape:pageopacity="0"
   inkscape:pagecheckerboard="true"
   inkscape:deskcolor="#d1d1d1"
   showgrid="false"
   inkscape:zoom="0.92657802"
   inkscape:cx="321.6135"
   inkscape:cy="56.120477"
   inkscape:window-width="1920"
   inkscape:window-height="1008"
   inkscape:window-x="0"
   inkscape:window-y="0"
   inkscape:window-maximized="1"
   inkscape:current-layer="g4243" />
<g
   id="g24"
   style="fill:#000000;fill-opacity:1"
   transform="translate(200.54276,-179.14589)">
	<defs
   id="defs3"><rect
     id="SVGID_1_"
     x="54.282001"
     y="266.43701"
     width="457.48199"
     height="34.660999" /></defs>
	<clipPath
   id="SVGID_00000163795309619531086440000004537916386999876783_">
		<use
   xlink:href="#SVGID_1_"
   style="overflow:visible"
   id="use5" />
	</clipPath>
	
	
	
	
	
	
	
	
<g
   id="g4243"><g
     id="g3257"
     transform="matrix(4.528446,0,0,4.5571022,-235.77824,-1035.0348)"
     style="fill:#6e6e6e;fill-opacity:1"
     inkscape:export-filename="./g3257.png"
     inkscape:export-xdpi="300.20999"
     inkscape:export-ydpi="300.20999"><path
       style="fill:#6e6e6e;fill-opacity:1"
       d="m 54.282,292.57 c 14.134,6.388 24.601,5.957 41.875,2.533 19.366,-3.839 31.421,-6.873 49.732,-8.389 17.219,-1.423 33.511,2.571 30.445,7.345 -3.47,5.4 -21.991,6.029 -36.494,6.029 -15.187,0 -23.443,-0.326 -37.903,-3.719 13.145,2.337 22.165,2.624 34.13,2.61 17.306,-0.021 38.49,-0.36 40.412,-5.783 1.531,-4.318 -15.412,-6.518 -28.908,-5.501 -13.308,1.004 -32.1,3.426 -51.706,8.185 -16.767,4.072 -27.9,4.208 -41.583,-3.31"
       clip-path="url(#SVGID_00000163795309619531086440000004537916386999876783_)"
       id="path12" /><path
       style="fill:#6e6e6e;fill-opacity:1"
       d="m 78.734,284.666 c 0,3.647 0,6.646 -0.189,8.242 -0.152,1.101 -0.342,1.936 -1.102,2.089 -0.342,0.076 -0.798,0.152 -1.139,0.152 -0.228,0 -0.304,0.113 -0.304,0.227 0,0.228 0.19,0.304 0.607,0.304 1.14,0 3.343,-0.114 3.646,-0.114 0.305,0 2.507,0.114 4.368,0.114 0.418,0 0.607,-0.114 0.607,-0.304 0,-0.114 -0.075,-0.227 -0.303,-0.227 -0.342,0 -0.949,-0.076 -1.481,-0.152 -1.139,-0.153 -1.368,-0.988 -1.481,-2.089 -0.19,-1.596 -0.19,-4.595 -0.19,-8.242 v -3.722 h 0.19 c 1.822,2.241 6.761,8.468 12.316,12.433 5.68,4.056 8.26,5.44 16.143,7.721 -8.022,-3.847 -10.688,-5.46 -15.656,-9.686 -4.904,-4.172 -9.195,-10.695 -10.183,-11.797 0.798,-0.95 7.406,-7.406 8.356,-8.317 1.708,-1.632 2.544,-2.583 4.101,-3.266 0.759,-0.342 1.557,-0.531 2.127,-0.531 0.304,0 0.38,-0.076 0.38,-0.267 0,-0.19 -0.152,-0.266 -0.57,-0.266 -0.949,0 -3.456,0.115 -3.646,0.115 -0.911,0 -2.089,-0.115 -2.849,-0.115 -0.265,0 -0.455,0.076 -0.455,0.266 0,0.152 0.152,0.228 0.342,0.304 0.303,0.114 0.493,0.342 0.493,0.797 0,0.646 -0.987,1.634 -2.05,2.735 -1.368,1.482 -8.241,8.469 -8.887,9.191 h -0.152 v -2.279 c 0,-5.924 0,-6.988 0.075,-8.203 0.077,-1.329 0.38,-1.975 1.406,-2.165 0.456,-0.076 0.684,-0.113 0.949,-0.113 0.153,0 0.304,-0.076 0.304,-0.228 0,-0.229 -0.19,-0.305 -0.607,-0.305 -1.14,0 -3.342,0.115 -3.685,0.115 -0.227,0 -2.468,-0.115 -4.177,-0.115 -0.418,0 -0.608,0.076 -0.608,0.305 0,0.152 0.152,0.228 0.304,0.228 0.342,0 0.988,0.037 1.291,0.113 1.254,0.266 1.558,0.873 1.633,2.165 0.076,1.215 0.076,2.279 0.076,8.203 z"
       clip-path="url(#SVGID_00000163795309619531086440000004537916386999876783_)"
       id="path14" /><path
       style="fill:#6e6e6e;fill-opacity:1"
       d="m 132.157,267.462 c -0.076,-0.722 -0.189,-1.025 -0.455,-1.025 -0.266,0 -0.418,0.266 -0.57,0.607 l -11.165,23.851 -11.622,-23.888 c -0.19,-0.419 -0.343,-0.57 -0.57,-0.57 -0.228,0 -0.342,0.266 -0.418,0.683 l -2.734,24.762 c -0.152,1.443 -0.266,2.925 -1.519,3.153 -0.57,0.114 -0.836,0.114 -1.14,0.114 -0.19,0 -0.38,0.076 -0.38,0.189 0,0.266 0.266,0.342 0.646,0.342 1.025,0 2.849,-0.114 3.19,-0.114 0.304,0 2.127,0.114 3.533,0.114 0.455,0 0.683,-0.076 0.683,-0.342 0,-0.113 -0.152,-0.189 -0.304,-0.189 -0.228,0 -0.797,-0.038 -1.443,-0.191 -0.569,-0.114 -0.988,-0.607 -0.988,-1.176 0,-0.646 0,-1.33 0.038,-1.937 l 1.519,-17.623 h 0.152 c 0.418,1.026 4.672,10.14 5.013,10.825 0.191,0.379 3.457,6.949 4.444,8.811 0.721,1.367 0.912,1.746 1.177,1.746 0.342,0 0.457,-0.342 1.254,-2.013 l 9.305,-19.748 h 0.114 l 1.822,19.597 c 0.077,0.682 0.038,1.328 -0.152,1.367 -0.189,0.037 -0.264,0.113 -0.264,0.266 0,0.189 0.189,0.303 1.063,0.38 1.405,0.113 5.506,0.227 6.342,0.227 0.456,0 0.797,-0.114 0.797,-0.342 0,-0.152 -0.114,-0.189 -0.304,-0.189 -0.379,0 -1.367,0 -2.468,-0.342 -1.633,-0.531 -1.899,-2.659 -2.051,-4.026 z"
       clip-path="url(#SVGID_00000163795309619531086440000004537916386999876783_)"
       id="path16" /><path
       style="fill:#6e6e6e;fill-opacity:1"
       d="m 152.094,296.212 c 2.052,0 4.102,-0.456 5.735,-1.595 2.62,-1.861 3.228,-4.746 3.228,-6.304 0,-3.039 -1.063,-5.394 -5.544,-8.926 l -1.064,-0.835 c -3.571,-2.924 -4.633,-4.216 -4.633,-6.381 0,-2.772 2.05,-4.405 4.67,-4.405 3.495,0 4.52,1.595 4.748,2.013 0.228,0.418 0.456,1.443 0.494,1.899 0.037,0.304 0.076,0.493 0.304,0.493 0.19,0 0.266,-0.265 0.266,-0.873 0,-2.582 0.151,-3.836 0.151,-4.025 0,-0.19 -0.076,-0.266 -0.38,-0.266 -0.304,0 -0.607,-0.038 -1.329,-0.191 -0.95,-0.227 -2.05,-0.379 -3.532,-0.379 -4.823,0 -7.862,2.772 -7.862,6.837 0,2.581 0.912,4.937 4.938,8.241 l 1.709,1.404 c 3.266,2.697 4.368,4.216 4.368,6.837 0,2.43 -1.786,5.051 -5.431,5.051 -2.545,0 -5.051,-1.064 -5.621,-3.874 -0.114,-0.531 -0.114,-1.062 -0.114,-1.405 0,-0.303 -0.038,-0.418 -0.266,-0.418 -0.19,0 -0.266,0.19 -0.304,0.607 -0.038,0.608 -0.19,2.128 -0.19,4.026 0,1.026 0.038,1.177 0.57,1.444 1.557,0.76 3.304,1.025 5.089,1.025"
       clip-path="url(#SVGID_00000163795309619531086440000004537916386999876783_)"
       id="path18" /><path
       style="fill:#6e6e6e;fill-opacity:1"
       d="m 95.638,281.092 c 0,-0.84 0.682,-1.521 1.522,-1.521 0.84,0 1.521,0.681 1.521,1.521 0,0.841 -0.681,1.522 -1.521,1.522 -0.84,0 -1.522,-0.681 -1.522,-1.522"
       clip-path="url(#SVGID_00000163795309619531086440000004537916386999876783_)"
       id="path20" /><path
       style="fill:#6e6e6e;fill-opacity:1"
       d="m 139.872,281.092 c 0,-0.84 0.682,-1.521 1.522,-1.521 0.84,0 1.522,0.681 1.522,1.521 0,0.841 -0.682,1.522 -1.522,1.522 -0.84,0 -1.522,-0.681 -1.522,-1.522"
       clip-path="url(#SVGID_00000163795309619531086440000004537916386999876783_)"
       id="path22" /></g><g
     id="g4230"
     style="fill:#6e6e6e;fill-opacity:1"
     inkscape:export-filename="KMS-WSR_darkgray.png"
     inkscape:export-xdpi="300.20999"
     inkscape:export-ydpi="300.20999"><path
       style="fill:#6e6e6e;fill-opacity:1"
       d="m 508.036,292.88 v 8.062 h 3.728 v -0.602 h -3.015 v -3.24 h 2.803 v -0.602 h -2.803 v -3.016 h 2.937 v -0.602 z m -5.07,8.062 h 0.713 v -7.46 h 1.966 V 292.88 H 501 v 0.602 h 1.966 z m -2.838,0 v -0.602 h -2.669 v -7.46 h -0.714 v 8.062 z m -8.107,-8.801 h 0.713 v -1.127 h -0.713 z m -1.764,0 h 0.713 v -1.127 h -0.713 z m -0.157,6.077 1.362,-4.558 h 0.023 l 1.373,4.558 z m 0.982,-5.338 -2.545,8.062 h 0.715 l 0.636,-2.122 h 3.159 l 0.648,2.122 h 0.748 l -2.511,-8.062 z m -10.419,7.125 h -0.022 l -1.63,-7.125 h -0.76 l 1.943,8.062 h 0.894 l 1.663,-7.17 h 0.023 l 1.619,7.17 h 0.938 l 1.998,-8.062 h -0.703 l -1.72,7.069 h -0.022 l -1.619,-7.069 h -0.96 z m -9.169,0.937 v -7.137 l 0.022,-0.022 3.285,7.159 h 1.082 v -8.062 h -0.714 v 7.058 l -0.022,0.022 -3.273,-7.08 h -1.094 v 8.062 z m -7.471,-2.724 1.363,-4.558 h 0.022 l 1.373,4.558 z m 0.983,-5.338 -2.546,8.062 h 0.715 l 0.636,-2.122 h 3.16 l 0.648,2.122 h 0.748 l -2.512,-8.062 z m -4.725,2.043 c 0,-1.162 -0.356,-2.199 -2.032,-2.199 -1.318,0 -2.199,0.579 -2.188,1.975 0.011,0.804 0.078,1.285 1.641,2.245 1.162,0.715 1.888,1.028 1.888,2.123 0,0.927 -0.458,1.429 -1.396,1.429 -1.442,0 -1.509,-0.927 -1.509,-1.82 h -0.735 c -0.067,1.575 0.635,2.422 2.21,2.422 1.408,0 2.144,-0.702 2.144,-2.143 0,-1.564 -1.015,-1.776 -2.01,-2.491 -0.916,-0.659 -1.519,-0.693 -1.519,-1.888 0,-0.949 0.547,-1.251 1.419,-1.251 1.095,0 1.34,0.603 1.363,1.598 z m -9.178,6.019 h 0.713 v -7.46 h 1.966 v -0.602 h -4.645 v 0.602 h 1.966 z m -8.21,0 V 297.1 h 3.173 v 3.842 h 0.714 v -8.062 h -0.714 v 3.618 h -3.173 v -3.618 h -0.713 v 8.062 z m -5.426,0.156 c 1.909,0 2.042,-1.886 2.042,-2.467 h -0.758 c -0.011,1.039 -0.357,1.865 -1.285,1.865 -1.698,0 -1.72,-1.441 -1.72,-3.585 0,-2.145 0.022,-3.586 1.72,-3.586 1.028,0 1.274,0.838 1.274,1.732 h 0.714 c 0,-0.726 -0.034,-2.333 -1.987,-2.333 -2.412,0 -2.434,2.009 -2.434,4.187 0,2.178 0.022,4.187 2.434,4.187 m -8.588,-8.218 v 8.062 h 3.729 v -0.602 h -3.015 v -3.24 h 2.803 v -0.602 h -2.803 v -3.016 h 2.937 v -0.602 z m -6.344,0.602 h 1.463 c 0.838,0 1.274,0.212 1.274,1.318 0,1.352 -0.503,1.631 -1.575,1.631 h -1.162 z m 1.352,3.551 c 1.552,0 1.318,1.552 1.329,1.898 0.011,0.436 0.045,1.776 0.112,2.011 h 0.68 c -0.023,-0.313 -0.078,-0.626 -0.078,-0.938 0,-2.882 -0.067,-3.016 -1.194,-3.25 v -0.022 c 1.082,-0.245 1.249,-0.915 1.249,-1.921 0,-1.419 -0.39,-1.931 -1.942,-1.931 h -2.222 v 8.062 h 0.714 v -3.909 z m -20.453,-3.551 h 1.464 c 0.838,0 1.273,0.212 1.273,1.318 0,1.352 -0.502,1.631 -1.575,1.631 h -1.162 z m 1.352,3.551 c 1.552,0 1.318,1.552 1.329,1.898 0.012,0.436 0.045,1.776 0.112,2.011 h 0.68 c -0.022,-0.313 -0.078,-0.626 -0.078,-0.938 0,-2.882 -0.067,-3.016 -1.194,-3.25 v -0.022 c 1.082,-0.245 1.25,-0.915 1.25,-1.921 0,-1.419 -0.39,-1.931 -1.943,-1.931 h -2.222 v 8.062 h 0.714 v -3.909 z m -8.342,-4.153 v 8.062 h 3.729 v -0.602 h -3.015 v -3.24 h 2.803 v -0.602 h -2.803 v -3.016 h 2.937 v -0.602 z m -5.07,8.062 h 0.714 v -7.46 h 1.965 v -0.602 h -4.644 v 0.602 h 1.965 z m -7.237,-2.724 1.362,-4.558 h 0.023 l 1.373,4.558 z m 0.983,-5.338 -2.546,8.062 h 0.715 l 0.636,-2.122 h 3.16 l 0.647,2.122 h 0.748 l -2.512,-8.062 z m -8.198,0.602 h 1.464 c 0.838,0 1.273,0.212 1.273,1.318 0,1.352 -0.502,1.631 -1.575,1.631 h -1.162 z m 1.352,3.551 c 1.552,0 1.318,1.552 1.33,1.898 0.011,0.436 0.044,1.776 0.111,2.011 h 0.68 c -0.022,-0.313 -0.078,-0.626 -0.078,-0.938 0,-2.882 -0.067,-3.016 -1.194,-3.25 v -0.022 c 1.083,-0.245 1.25,-0.915 1.25,-1.921 0,-1.419 -0.39,-1.931 -1.943,-1.931 h -2.222 v 8.062 h 0.714 v -3.909 z m -8.342,-4.153 v 8.062 h 3.729 v -0.602 h -3.015 v -3.24 h 2.803 v -0.602 h -2.803 v -3.016 h 2.937 v -0.602 z m -6.344,4.186 h 1.452 c 1.229,0 1.442,0.972 1.442,1.688 0,1.184 -0.57,1.586 -1.755,1.586 h -1.139 z m 1.564,3.876 c 1.352,0 2.043,-0.792 2.043,-2.244 0,-1.017 -0.279,-1.721 -1.339,-1.943 v -0.023 c 1.015,-0.278 1.171,-0.949 1.171,-1.921 0,-1.419 -0.646,-1.931 -1.908,-1.931 h -2.245 v 8.062 z m -1.564,-4.477 v -2.983 h 1.419 c 0.57,0 1.307,0.022 1.307,1.363 0,0.916 -0.324,1.62 -1.352,1.62 z m -6.98,-2.983 h 1.464 c 0.838,0 1.273,0.212 1.273,1.318 0,1.352 -0.502,1.631 -1.575,1.631 h -1.162 z m 1.352,3.551 c 1.552,0 1.318,1.552 1.33,1.898 0.011,0.436 0.044,1.776 0.111,2.011 h 0.68 c -0.022,-0.313 -0.078,-0.626 -0.078,-0.938 0,-2.882 -0.067,-3.016 -1.194,-3.25 v -0.022 c 1.083,-0.245 1.25,-0.915 1.25,-1.921 0,-1.419 -0.39,-1.931 -1.943,-1.931 h -2.221 v 8.062 h 0.713 v -3.909 z m -8.342,-4.153 v 8.062 h 3.729 v -0.602 h -3.015 v -3.24 h 2.803 v -0.602 h -2.803 v -3.016 h 2.937 v -0.602 z m -6.981,0 h -0.713 v 5.595 c 0,2.077 1.093,2.623 2.356,2.623 1.262,0 2.355,-0.546 2.355,-2.623 v -5.595 h -0.713 v 5.07 c 0,1.05 0,2.546 -1.642,2.546 -1.643,0 -1.643,-1.496 -1.643,-2.546 z m -6.978,0 v 8.062 h 3.729 v -0.602 h -3.016 v -3.24 h 2.803 v -0.602 h -2.803 v -3.016 h 2.937 v -0.602 z m -5.07,8.062 h 0.713 v -7.46 h 1.966 v -0.602 h -4.645 v 0.602 h 1.966 z m -4.156,-6.019 c 0,-1.162 -0.357,-2.199 -2.032,-2.199 -1.318,0 -2.199,0.579 -2.188,1.975 0.011,0.804 0.078,1.285 1.641,2.245 1.162,0.715 1.888,1.028 1.888,2.123 0,0.927 -0.458,1.429 -1.396,1.429 -1.442,0 -1.509,-0.927 -1.509,-1.82 h -0.736 c -0.067,1.575 0.636,2.422 2.211,2.422 1.408,0 2.143,-0.702 2.143,-2.143 0,-1.564 -1.015,-1.776 -2.009,-2.491 -0.916,-0.659 -1.52,-0.693 -1.52,-1.888 0,-0.949 0.548,-1.251 1.419,-1.251 1.095,0 1.341,0.603 1.364,1.598 z m -22.574,-1.441 h 1.464 c 0.838,0 1.274,0.212 1.274,1.318 0,1.352 -0.503,1.631 -1.576,1.631 h -1.162 z m 1.352,3.551 c 1.553,0 1.319,1.552 1.33,1.898 0.011,0.436 0.044,1.776 0.111,2.011 h 0.68 c -0.022,-0.313 -0.078,-0.626 -0.078,-0.938 0,-2.882 -0.067,-3.016 -1.194,-3.25 v -0.022 c 1.083,-0.245 1.25,-0.915 1.25,-1.921 0,-1.419 -0.39,-1.931 -1.942,-1.931 h -2.222 v 8.062 h 0.713 v -3.909 z m -8.341,-4.153 v 8.062 h 3.728 v -0.602 h -3.015 v -3.24 h 2.803 v -0.602 h -2.803 v -3.016 h 2.937 v -0.602 z m -5.819,8.062 h 0.714 V 297.1 h 2.501 v -0.602 h -2.501 v -3.016 h 2.691 v -0.602 h -3.405 z m -4.735,-8.801 h 0.713 v -1.127 h -0.713 z m -1.764,0 h 0.713 v -1.127 h -0.713 z m -0.404,0.739 h -0.713 v 5.595 c 0,2.077 1.094,2.623 2.356,2.623 1.261,0 2.355,-0.546 2.355,-2.623 v -5.595 h -0.713 v 5.07 c 0,1.05 0,2.546 -1.642,2.546 -1.643,0 -1.643,-1.496 -1.643,-2.546 z m -6.968,0.602 h 1.463 c 0.838,0 1.274,0.212 1.274,1.318 0,1.352 -0.503,1.631 -1.575,1.631 h -1.162 z m 1.352,3.551 c 1.552,0 1.318,1.552 1.329,1.898 0.011,0.436 0.045,1.776 0.112,2.011 h 0.68 c -0.022,-0.313 -0.078,-0.626 -0.078,-0.938 0,-2.882 -0.067,-3.016 -1.194,-3.25 v -0.022 c 1.082,-0.245 1.25,-0.915 1.25,-1.921 0,-1.419 -0.391,-1.931 -1.943,-1.931 h -2.222 v 8.062 h 0.714 v -3.909 z m -7.751,-3.551 h 1.318 c 0.648,0 1.241,0.111 1.241,1.486 0,1.262 -0.481,1.62 -1.23,1.62 h -1.329 z m -0.714,7.46 h 0.714 v -3.753 h 1.363 c 1.385,0 1.909,-0.735 1.909,-2.355 0,-1.865 -1.105,-1.954 -1.775,-1.954 h -2.211 z m -2.748,-6.019 c 0,-1.162 -0.357,-2.199 -2.032,-2.199 -1.319,0 -2.199,0.579 -2.188,1.975 0.011,0.804 0.078,1.285 1.64,2.245 1.162,0.715 1.889,1.028 1.889,2.123 0,0.927 -0.458,1.429 -1.397,1.429 -1.441,0 -1.508,-0.927 -1.508,-1.82 h -0.736 c -0.067,1.575 0.635,2.422 2.211,2.422 1.407,0 2.143,-0.702 2.143,-2.143 0,-1.564 -1.015,-1.776 -2.009,-2.491 -0.917,-0.659 -1.52,-0.693 -1.52,-1.888 0,-0.949 0.548,-1.251 1.419,-1.251 1.095,0 1.341,0.603 1.363,1.598 z m -9.179,6.019 h 0.714 v -7.46 h 1.965 v -0.602 h -4.644 v 0.602 h 1.965 z m -7.102,0 h 0.713 V 297.1 h 2.502 v -0.602 h -2.502 v -3.016 h 2.692 v -0.602 h -3.405 z m -6.657,-2.724 1.363,-4.558 h 0.022 l 1.373,4.558 z m 0.983,-5.338 -2.546,8.062 h 0.715 l 0.636,-2.122 h 3.16 l 0.648,2.122 h 0.748 l -2.512,-8.062 z m -8.779,8.062 V 297.1 h 3.173 v 3.842 h 0.714 v -8.062 h -0.714 v 3.618 h -3.173 v -3.618 h -0.713 v 8.062 z m -5.426,0.156 c 1.909,0 2.043,-1.886 2.043,-2.467 h -0.758 c -0.012,1.039 -0.358,1.865 -1.285,1.865 -1.699,0 -1.721,-1.441 -1.721,-3.585 0,-2.145 0.022,-3.586 1.721,-3.586 1.028,0 1.273,0.838 1.273,1.732 h 0.714 c 0,-0.726 -0.034,-2.333 -1.987,-2.333 -2.412,0 -2.434,2.009 -2.434,4.187 0,2.178 0.022,4.187 2.434,4.187 m -5.105,-6.175 c 0,-1.162 -0.357,-2.199 -2.032,-2.199 -1.318,0 -2.199,0.579 -2.188,1.975 0.011,0.804 0.078,1.285 1.641,2.245 1.162,0.715 1.888,1.028 1.888,2.123 0,0.927 -0.458,1.429 -1.396,1.429 -1.442,0 -1.509,-0.927 -1.509,-1.82 h -0.736 c -0.067,1.575 0.636,2.422 2.211,2.422 1.408,0 2.143,-0.702 2.143,-2.143 0,-1.564 -1.015,-1.776 -2.009,-2.491 -0.916,-0.659 -1.52,-0.693 -1.52,-1.888 0,-0.949 0.548,-1.251 1.419,-1.251 1.095,0 1.341,0.603 1.364,1.598 z m -9.178,6.019 h 0.713 v -7.46 h 1.966 v -0.602 h -4.645 v 0.602 h 1.966 z m -7.629,-7.46 h 1.464 c 0.838,0 1.273,0.212 1.273,1.318 0,1.352 -0.502,1.631 -1.575,1.631 h -1.162 z m 1.352,3.551 c 1.552,0 1.318,1.552 1.33,1.898 0.011,0.436 0.044,1.776 0.111,2.011 h 0.68 c -0.022,-0.313 -0.078,-0.626 -0.078,-0.938 0,-2.882 -0.067,-3.016 -1.194,-3.25 v -0.022 c 1.083,-0.245 1.25,-0.915 1.25,-1.921 0,-1.419 -0.39,-1.931 -1.943,-1.931 h -2.221 v 8.062 h 0.713 v -3.909 z m -5.818,3.909 h 0.713 v -8.062 h -0.713 z m -9.057,-0.937 h -0.022 l -1.631,-7.125 h -0.759 l 1.943,8.062 h 0.893 l 1.664,-7.17 h 0.022 l 1.619,7.17 h 0.938 l 1.999,-8.062 h -0.703 l -1.72,7.069 h -0.022 l -1.619,-7.069 h -0.961 z"
       clip-path="url(#SVGID_00000163795309619531086440000004537916386999876783_)"
       id="path10"
       transform="matrix(3.0654171,0,0,3.0136813,-793.12467,-487.6385)"
       sodipodi:nodetypes="ccccccccccccccccccccccccccccccccccccccccccccccccccccccccccccccccccccccccccccccccccccccccccccccccccsccssccsscsscccccccccccccccccccccccccccsssccsscccccccccccccccsssccscccsccssccccscsssccscccsccssccccscccccccccccccccccccccccccccccccccccccsssccscccsccssccccsccccccccccccccsssccssccssccsccsssccsssccscccsccssccccscccccccccccccccsssccsssccccccccccccccccccccccccsccssccsscsscccsssccscccsccssccccsccccccccccccccccccccccccccccccccccccsssccsssccsssccscccsccssccccscssscccccssscccsccssccsscssccccccccccccccccccccccccccccccccccccccccccccccccccccsssccssccsccssccsscssccccccccccccsssccscccsccssccccscccccccccccccccccccccc" /><ellipse
       style="fill:#6e6e6e;fill-opacity:1"
       id="path4198"
       cx="476.44611"
       cy="407.26877"
       rx="2.0731399"
       ry="2.1465328" /><ellipse
       style="fill:#6e6e6e;fill-opacity:1"
       id="path4198-3"
       cx="171.58498"
       cy="407.12564"
       rx="2.0731399"
       ry="2.1465328" /></g></g></g>
<g
   id="g26"
   transform="translate(200.54276,-179.14589)">
</g>
<g
   id="g28"
   transform="translate(200.54276,-179.14589)">
</g>
<g
   id="g30"
   transform="translate(200.54276,-179.14589)">
</g>
<g
   id="g32"
   transform="translate(200.54276,-179.14589)">
</g>
<g
   id="g34"
   transform="translate(200.54276,-179.14589)">
</g>
<g
   id="g36"
   transform="translate(200.54276,-179.14589)">
</g>
</svg>
