<?xml version="1.0" encoding="UTF-8"?>
<svg id="Ebene_1" data-name="Ebene 1" xmlns="http://www.w3.org/2000/svg" version="1.1" viewBox="0 0 749.8 334.9">
  <defs>
    <style>
      .cls-1 {
        fill: #1b2342;
        stroke-width: 0px;
      }
    </style>
  </defs>
  <path class="cls-1" d="M222.1,77.8l-8.9-6.4L127,10.4l-10.8-7.7L112.4,0l-3.8,2.7-10.8,7.7L11.8,71.4l-9,6.4-2.8,2v148.5l10.4-7.4,58-41.2,44-31.2,71.4,50.7,8,5.7v64.9l-75.7-53.7-3.8-2.7-3.8,2.7-75.7,53.7v-33.2l-10.4,7.4-19.8,14-2.8,2v75l10.4-7.4,30.6-21.7,71.4-50.7,71.4,50.7,30.6,21.7,10.4,7.4v-148.4l-2.8-2-19.8-14-75.2-53.4-10.8-7.7-3.8-2.7-3.8,2.7-10.8,7.7-64.9,46v-64.9l79.5-56.3,79.5,56.3v33.2l2.8,2,19.8,14,10.4,7.4v-75l-2.8-2h0ZM101.6,15.8l10.8-7.7,10.8,7.7,35.7,25.3-35.7-25.3-10.8-7.7-10.8,7.7-35.7,25.3,35.7-25.3ZM6.6,263.3l19.8-14-19.8,14ZM6.6,322.1l22.6-16-22.6,16ZM218.2,322.1l-22.6-16,22.6,16ZM112.4,33.7L26.4,94.8l86.1-61.1,86.1,61-86.1-61ZM218.2,142l-9.9-7,9.9,7Z"/>
  <path class="cls-1" d="M343.2,150.7c-7,0-14-1-20.8-2.9-6.7-1.9-12.1-4.5-16.1-7.6l7.1-15.8c4.2,3,8.9,5.3,13.9,6.9,5.2,1.7,10.6,2.6,16.1,2.6,6,0,10.4-.9,13.2-2.7,2.8-1.8,4.3-4.1,4.3-7.1,0-2.1-.9-4.1-2.5-5.4-1.9-1.6-4.1-2.7-6.5-3.4-2.6-.9-6.2-1.8-10.7-2.9-5.8-1.3-11.4-2.9-17-4.9-4.4-1.6-8.3-4.4-11.3-7.9-3.2-3.6-4.7-8.5-4.7-14.5,0-5.1,1.4-10.1,4.3-14.3,2.9-4.3,7.2-7.7,12.9-10.2,5.7-2.5,12.8-3.8,21-3.8,5.7,0,11.4.7,17,2.1,5.1,1.2,10,3.2,14.5,6l-6.5,15.9c-8.4-4.8-16.8-7.1-25.1-7.1s-10.2,1-13,2.9c-2.6,1.6-4.2,4.4-4.2,7.5,0,3.1,1.6,5.4,4.9,6.9,3.2,1.5,8.2,3,14.8,4.5,5.7,1.3,11.4,3,17,4.9,4.4,1.6,8.3,4.3,11.3,7.8,3.2,3.5,4.7,8.3,4.7,14.4,0,5.1-1.5,10-4.3,14.2-2.9,4.3-7.2,7.7-13,10.2-5.8,2.5-12.8,3.8-21.1,3.8Z"/>
  <path class="cls-1" d="M455.7,129.7h-42.1l-8,19.4h-21.5l40.4-90.7h20.7l40.6,90.7h-22l-8-19.4ZM449.1,113.8l-14.4-34.7-14.4,34.7h28.8Z"/>
  <path class="cls-1" d="M495.2,58.4h21v73.6h45.5v17.1h-66.5V58.4Z"/>
  <path class="cls-1" d="M643.6,132.3v16.8h-70.2V58.4h68.6v16.8h-47.7v19.7h42.1v16.3h-42.1v21h49.4Z"/>
  <path class="cls-1" d="M690.1,150.7c-7,0-14-1-20.8-2.9-6.7-1.9-12.1-4.5-16.1-7.6l7.1-15.8c4.2,3,8.9,5.3,13.9,6.9,5.2,1.7,10.6,2.6,16.1,2.6,6,0,10.4-.9,13.2-2.7,2.8-1.8,4.3-4.1,4.3-7.1,0-2.1-.9-4.1-2.5-5.4-1.9-1.6-4.1-2.7-6.5-3.4-2.6-.9-6.2-1.8-10.7-2.9-5.8-1.3-11.4-2.9-17-4.9-4.4-1.6-8.3-4.4-11.3-7.9-3.2-3.6-4.7-8.5-4.7-14.5,0-5.1,1.4-10.1,4.3-14.3,2.9-4.3,7.2-7.7,12.9-10.2,5.7-2.5,12.8-3.8,21-3.8,5.7,0,11.4.7,17,2.1,5.1,1.2,10,3.2,14.5,6l-6.5,15.9c-8.4-4.8-16.8-7.1-25.1-7.1s-10.2,1-13,2.9c-2.6,1.6-4.2,4.4-4.2,7.5,0,3.1,1.6,5.4,4.9,6.9,3.2,1.5,8.2,3,14.8,4.5,5.7,1.3,11.4,3,17,4.9,4.4,1.6,8.3,4.3,11.3,7.8,3.2,3.5,4.7,8.3,4.7,14.4,0,5.1-1.5,10-4.3,14.2-2.9,4.3-7.2,7.7-13,10.2-5.8,2.5-12.8,3.8-21.1,3.8Z"/>
  <path class="cls-1" d="M450.4,190.6l-29.7,90.7h-22.5l-20-61.4-20.6,61.4h-22.4l-29.8-90.7h21.8l20.5,63.7,21.4-63.7h19.4l20.7,64.2,21.1-64.2h20.1Z"/>
  <path class="cls-1" d="M507.9,282.8c-8.9.1-17.6-2-25.5-6.1-7.3-3.9-13.5-9.7-17.8-16.8-4.3-7.3-6.5-15.6-6.4-24-.1-8.4,2.1-16.8,6.4-24,4.3-7.1,10.4-12.9,17.7-16.8,7.8-4.1,16.6-6.2,25.5-6.1,8.8-.1,17.6,2,25.4,6.1,7.3,3.9,13.5,9.7,17.8,16.8,4.4,7.3,6.6,15.6,6.5,24,.1,8.5-2.1,16.8-6.5,24-4.3,7.1-10.4,12.9-17.8,16.8-7.8,4.1-16.5,6.2-25.4,6.1ZM507.9,265c5.1,0,10.1-1.2,14.5-3.7,4.3-2.4,7.8-6,10.2-10.3,2.5-4.6,3.8-9.8,3.7-15,0-5.2-1.2-10.4-3.7-15-2.4-4.3-5.9-7.9-10.2-10.3-4.4-2.5-9.4-3.8-14.5-3.7-5.1,0-10.1,1.2-14.5,3.7-4.3,2.4-7.8,6-10.2,10.3-2.5,4.6-3.8,9.8-3.7,15,0,5.2,1.2,10.4,3.7,15,2.4,4.3,5.9,7.9,10.2,10.3,4.4,2.5,9.4,3.8,14.5,3.7Z"/>
  <path class="cls-1" d="M631.1,281.3l-17.5-25.3h-19.3v25.3h-21v-90.7h39.3c8,0,15,1.3,20.9,4,5.6,2.4,10.3,6.4,13.7,11.4,3.3,5.2,5,11.3,4.8,17.5.2,6.2-1.5,12.2-4.9,17.4-3.4,5-8.2,8.9-13.8,11.2l20.3,29.2h-22.5ZM630.7,223.5c0-5.1-1.6-9-4.9-11.7-3.3-2.7-8.1-4.1-14.4-4.1h-17.1v31.6h17.1c6.3,0,11.1-1.4,14.4-4.1,3.3-2.8,4.9-6.6,4.9-11.7Z"/>
  <path class="cls-1" d="M725.6,281.3l-21.9-31.5-21.5,31.5h-24.1l33.6-46.1-31.9-44.6h23.8l20.9,29.4,20.5-29.4h22.7l-31.6,43.8,33.8,46.9h-24.2Z"/>
</svg>