<svg xmlns="http://www.w3.org/2000/svg" xmlns:xlink="http://www.w3.org/1999/xlink" width="150px" height="150px" viewBox="0 0 150 150"><g id="surface1"><path style=" stroke:none;fill-rule:nonzero;fill:rgb(0%,0%,0%);fill-opacity:1;" d="M 1.519531 1.519531 L 148.480469 1.519531 L 148.480469 148.480469 L 1.519531 148.480469 Z M 1.519531 1.519531 "></path><path style=" stroke:none;fill-rule:nonzero;fill:rgb(32.156864%,77.64706%,84.705883%);fill-opacity:1;" d="M 146.957031 3.042969 L 146.957031 146.957031 L 3.042969 146.957031 L 3.042969 3.042969 L 146.957031 3.042969 M 150 0 L 0 0 L 0 150 L 150 150 Z M 150 0 "></path><path style=" stroke:none;fill-rule:nonzero;fill:rgb(32.156864%,77.64706%,84.705883%);fill-opacity:1;" d="M 24.371094 60.683594 L 29.496094 60.683594 L 23.964844 87.339844 L 17.574219 87.339844 L 11.902344 60.683594 L 17.027344 60.683594 L 20.03125 77.78125 C 20.304688 79.273438 20.472656 80.800781 20.617188 82.328125 C 20.6875 83.039062 20.824219 83.785156 20.824219 84.53125 L 20.894531 84.53125 C 20.894531 83.785156 21.027344 83.039062 21.097656 82.328125 C 21.234375 80.800781 21.40625 79.273438 21.683594 77.78125 L 24.382812 60.683594 Z M 24.371094 60.683594 "></path><path style=" stroke:none;fill-rule:nonzero;fill:rgb(32.156864%,77.64706%,84.705883%);fill-opacity:1;" d="M 32.90625 87.347656 L 32.90625 60.691406 L 46.363281 60.691406 L 46.363281 64.597656 L 37.691406 64.597656 L 37.691406 71.316406 L 45.683594 71.316406 L 45.683594 75.226562 L 37.691406 75.226562 L 37.691406 83.4375 L 46.363281 83.4375 L 46.363281 87.347656 Z M 32.90625 87.347656 "></path><path style=" stroke:none;fill-rule:nonzero;fill:rgb(32.156864%,77.64706%,84.705883%);fill-opacity:1;" d="M 54.960938 75.867188 L 54.960938 87.347656 L 50.175781 87.347656 L 50.175781 60.691406 L 59.226562 60.691406 C 63.355469 60.691406 66.496094 62.183594 66.496094 67.085938 C 66.496094 70.003906 65.78125 73.058594 62.566406 73.519531 L 62.566406 73.59375 C 65.402344 73.984375 66.257812 75.867188 66.257812 78.425781 C 66.257812 79.527344 66.121094 86.070312 67.28125 86.851562 L 67.28125 87.347656 L 62.019531 87.347656 C 61.4375 85.640625 61.542969 82.371094 61.507812 80.59375 C 61.472656 78.960938 61.507812 76.71875 59.863281 76.222656 C 58.5625 75.832031 57.164062 75.867188 55.796875 75.867188 L 54.945312 75.867188 Z M 54.960938 71.957031 L 58.71875 71.957031 C 60.292969 71.851562 61.519531 70.785156 61.519531 68.117188 C 61.519531 65.132812 60.328125 64.636719 58.515625 64.597656 L 54.960938 64.597656 Z M 54.960938 71.957031 "></path><path style=" stroke:none;fill-rule:nonzero;fill:rgb(32.156864%,77.64706%,84.705883%);fill-opacity:1;" d="M 70.238281 87.347656 L 76.351562 60.691406 L 82.804688 60.691406 L 88.613281 87.347656 L 83.488281 87.347656 L 82.222656 80.59375 L 76.621094 80.59375 L 75.355469 87.347656 L 70.230469 87.347656 Z M 77.375 76.683594 L 81.476562 76.683594 L 80.175781 69.113281 C 79.933594 67.871094 79.835938 66.660156 79.699219 65.417969 C 79.664062 64.8125 79.597656 64.207031 79.527344 63.640625 L 79.457031 63.640625 C 79.386719 64.207031 79.324219 64.8125 79.285156 65.417969 C 79.152344 66.660156 79.046875 67.871094 78.808594 69.113281 Z M 77.375 76.683594 "></path><path style=" stroke:none;fill-rule:nonzero;fill:rgb(32.156864%,77.64706%,84.705883%);fill-opacity:1;" d="M 12.882812 93.296875 L 19.378906 93.296875 C 23.316406 93.296875 25.039062 95.773438 25.039062 99.277344 C 25.039062 102.953125 22.882812 105.339844 19.03125 105.339844 L 16.160156 105.339844 L 16.160156 113.816406 L 12.882812 113.816406 Z M 16.160156 102.867188 L 18.484375 102.867188 C 20.238281 102.867188 21.761719 101.921875 21.761719 99.335938 C 21.761719 97.125 20.871094 95.773438 18.257812 95.773438 L 16.160156 95.773438 Z M 16.160156 102.867188 "></path><path style=" stroke:none;fill-rule:nonzero;fill:rgb(32.156864%,77.64706%,84.705883%);fill-opacity:1;" d="M 29.792969 93.296875 L 33.988281 93.296875 L 39.390625 113.816406 L 35.972656 113.816406 L 34.707031 108.789062 L 28.699219 108.789062 L 27.375 113.816406 L 23.957031 113.816406 Z M 34.160156 106.171875 L 31.804688 96.058594 L 31.75 96.058594 L 29.304688 106.171875 Z M 34.160156 106.171875 "></path><path style=" stroke:none;fill-rule:nonzero;fill:rgb(32.156864%,77.64706%,84.705883%);fill-opacity:1;" d="M 40.796875 93.296875 L 48.042969 93.296875 C 50.914062 93.296875 53.246094 94.734375 53.246094 98.585938 C 53.246094 101.230469 52.066406 103.273438 49.828125 103.613281 L 49.828125 103.671875 C 51.867188 103.871094 52.933594 104.992188 53.046875 107.863281 C 53.074219 109.1875 53.105469 110.792969 53.160156 112.03125 C 53.21875 113.03125 53.707031 113.523438 54.136719 113.816406 L 50.429688 113.816406 C 50.117188 113.4375 49.96875 112.8125 49.882812 112.003906 C 49.769531 110.765625 49.796875 109.621094 49.742188 108.121094 C 49.683594 105.882812 48.996094 104.902344 46.757812 104.902344 L 44.082031 104.902344 L 44.082031 113.808594 L 40.804688 113.808594 L 40.804688 93.292969 Z M 46.691406 102.433594 C 48.789062 102.433594 49.96875 101.167969 49.96875 99.097656 C 49.96875 96.917969 49.023438 95.765625 46.863281 95.765625 L 44.074219 95.765625 L 44.074219 102.433594 Z M 46.691406 102.433594 "></path><path style=" stroke:none;fill-rule:nonzero;fill:rgb(32.156864%,77.64706%,84.705883%);fill-opacity:1;" d="M 59.375 96.058594 L 54.492188 96.058594 L 54.492188 93.296875 L 67.449219 93.296875 L 67.449219 96.058594 L 62.652344 96.058594 L 62.652344 113.816406 L 59.375 113.816406 Z M 59.375 96.058594 "></path><path style=" stroke:none;fill-rule:nonzero;fill:rgb(32.156864%,77.64706%,84.705883%);fill-opacity:1;" d="M 69.058594 93.296875 L 73.050781 93.296875 L 79.003906 108.582031 L 79.058594 108.582031 L 79.058594 93.296875 L 82.164062 93.296875 L 82.164062 113.816406 L 78.171875 113.816406 L 72.21875 98.125 L 72.164062 98.125 L 72.164062 113.816406 L 69.058594 113.816406 Z M 69.058594 93.296875 "></path><path style=" stroke:none;fill-rule:nonzero;fill:rgb(32.156864%,77.64706%,84.705883%);fill-opacity:1;" d="M 84.683594 93.296875 L 95.773438 93.296875 L 95.773438 96.058594 L 87.960938 96.058594 L 87.960938 101.742188 L 95.316406 101.742188 L 95.316406 104.503906 L 87.960938 104.503906 L 87.960938 111.058594 L 96.007812 111.058594 L 96.007812 113.816406 L 84.683594 113.816406 Z M 84.683594 93.296875 "></path><path style=" stroke:none;fill-rule:nonzero;fill:rgb(32.156864%,77.64706%,84.705883%);fill-opacity:1;" d="M 97.914062 93.296875 L 105.15625 93.296875 C 108.027344 93.296875 110.359375 94.734375 110.359375 98.585938 C 110.359375 101.230469 109.179688 103.273438 106.941406 103.613281 L 106.941406 103.671875 C 108.980469 103.871094 110.046875 104.992188 110.160156 107.863281 C 110.191406 109.1875 110.21875 110.792969 110.273438 112.03125 C 110.332031 113.03125 110.824219 113.523438 111.25 113.816406 L 107.546875 113.816406 C 107.230469 113.4375 107.082031 112.8125 106.996094 112.003906 C 106.882812 110.765625 106.914062 109.621094 106.855469 108.121094 C 106.796875 105.882812 106.109375 104.902344 103.871094 104.902344 L 101.195312 104.902344 L 101.195312 113.808594 L 97.917969 113.808594 L 97.917969 93.292969 Z M 103.804688 102.433594 C 105.902344 102.433594 107.082031 101.167969 107.082031 99.097656 C 107.082031 96.917969 106.136719 95.765625 103.976562 95.765625 L 101.191406 95.765625 L 101.191406 102.433594 Z M 103.804688 102.433594 "></path><path style=" stroke:none;fill-rule:nonzero;fill:rgb(32.156864%,77.64706%,84.705883%);fill-opacity:1;" d="M 115.328125 107.460938 L 115.328125 107.980469 C 115.328125 110.480469 116.425781 111.738281 118.691406 111.738281 C 120.761719 111.738281 121.796875 110.273438 121.796875 108.753906 C 121.796875 106.597656 120.703125 105.648438 118.871094 105.105469 L 116.628906 104.332031 C 113.644531 103.179688 112.351562 101.628906 112.351562 98.703125 C 112.351562 94.96875 114.882812 92.902344 118.726562 92.902344 C 123.988281 92.902344 124.527344 96.175781 124.527344 98.304688 L 124.527344 98.765625 L 121.25 98.765625 L 121.25 98.332031 C 121.25 96.460938 120.417969 95.375 118.378906 95.375 C 116.972656 95.375 115.621094 96.148438 115.621094 98.332031 C 115.621094 100.085938 116.507812 100.976562 118.691406 101.808594 L 120.902344 102.613281 C 123.804688 103.648438 125.070312 105.226562 125.070312 108.042969 C 125.070312 112.40625 122.425781 114.21875 118.285156 114.21875 C 113.203125 114.21875 112.050781 110.828125 112.050781 107.957031 L 112.050781 107.46875 L 115.328125 107.46875 Z M 115.328125 107.460938 "></path><path style=" stroke:none;fill-rule:nonzero;fill:rgb(100%,100%,100%);fill-opacity:1;" d="M 14.148438 120.320312 L 15.035156 120.320312 L 15.035156 134.652344 L 21.371094 134.652344 L 21.371094 135.453125 L 14.140625 135.453125 L 14.140625 120.320312 Z M 14.148438 120.320312 "></path><path style=" stroke:none;fill-rule:nonzero;fill:rgb(100%,100%,100%);fill-opacity:1;" d="M 23.160156 120.320312 L 30.390625 120.320312 L 30.390625 121.125 L 24.058594 121.125 L 24.058594 127.164062 L 29.972656 127.164062 L 29.972656 127.96875 L 24.058594 127.96875 L 24.058594 134.644531 L 30.582031 134.644531 L 30.582031 135.449219 L 23.160156 135.449219 L 23.160156 120.3125 Z M 23.160156 120.320312 "></path><path style=" stroke:none;fill-rule:nonzero;fill:rgb(100%,100%,100%);fill-opacity:1;" d="M 39.652344 130.75 L 33.953125 130.75 L 32.507812 135.453125 L 31.621094 135.453125 L 36.328125 120.320312 L 37.449219 120.320312 L 41.984375 135.453125 L 41.097656 135.453125 Z M 36.875 121.207031 L 36.832031 121.207031 L 34.160156 130.023438 L 39.476562 130.023438 L 36.867188 121.207031 Z M 36.875 121.207031 "></path><path style=" stroke:none;fill-rule:nonzero;fill:rgb(100%,100%,100%);fill-opacity:1;" d="M 43.5 120.320312 L 46.953125 120.320312 C 50.152344 120.320312 52.402344 121.675781 52.402344 127.882812 C 52.402344 134.089844 49.8125 135.449219 46.953125 135.449219 L 43.5 135.449219 L 43.5 120.3125 Z M 46.953125 134.730469 C 50.175781 134.730469 51.511719 132.527344 51.511719 127.882812 C 51.511719 123.242188 50.429688 121.039062 46.953125 121.039062 L 44.386719 121.039062 L 44.386719 134.730469 Z M 46.953125 134.730469 "></path><path style=" stroke:none;fill-rule:nonzero;fill:rgb(100%,100%,100%);fill-opacity:1;" d="M 54.53125 120.320312 L 61.761719 120.320312 L 61.761719 121.125 L 55.429688 121.125 L 55.429688 127.164062 L 61.34375 127.164062 L 61.34375 127.96875 L 55.429688 127.96875 L 55.429688 134.644531 L 61.953125 134.644531 L 61.953125 135.449219 L 54.53125 135.449219 L 54.53125 120.3125 Z M 54.53125 120.320312 "></path><path style=" stroke:none;fill-rule:nonzero;fill:rgb(100%,100%,100%);fill-opacity:1;" d="M 63.652344 120.320312 L 68.082031 120.320312 C 70.179688 120.320312 71.835938 121.527344 71.835938 124.285156 C 71.835938 126.277344 70.777344 127.828125 68.808594 128.039062 L 68.808594 128.082031 C 71.289062 128.230469 71.730469 129.761719 71.730469 131.835938 L 71.730469 133.429688 C 71.730469 134.296875 71.859375 134.851562 72.242188 135.460938 L 71.226562 135.460938 C 70.992188 135.015625 70.839844 134.296875 70.839844 133.40625 L 70.839844 131.859375 C 70.839844 129.695312 70.25 128.445312 67.8125 128.445312 L 64.550781 128.445312 L 64.550781 135.460938 L 63.660156 135.460938 L 63.660156 120.328125 Z M 67.386719 127.71875 C 69.0625 127.71875 70.949219 127.164062 70.949219 124.285156 C 70.949219 122.253906 69.804688 121.046875 67.960938 121.046875 L 64.550781 121.046875 L 64.550781 127.71875 L 67.394531 127.71875 Z M 67.386719 127.71875 "></path><path style=" stroke:none;fill-rule:nonzero;fill:rgb(100%,100%,100%);fill-opacity:1;" d="M 74.515625 131.574219 C 74.515625 133.5 75.769531 134.984375 77.949219 134.984375 C 80.132812 134.984375 81.449219 133.480469 81.449219 131.550781 C 81.449219 129.625 80.386719 128.902344 78.691406 128.308594 L 76.96875 127.71875 C 74.980469 127.046875 73.898438 126.0625 73.898438 124.007812 C 73.898438 121.570312 75.574219 120.0625 77.941406 120.0625 C 80.742188 120.0625 81.988281 121.65625 81.988281 124.171875 L 81.097656 124.171875 C 81.097656 122.140625 80.167969 120.78125 78.027344 120.78125 C 76.328125 120.78125 74.785156 121.5625 74.785156 123.917969 C 74.785156 125.59375 75.695312 126.398438 77.011719 126.839844 L 79.257812 127.621094 C 81.207031 128.296875 82.328125 129.257812 82.328125 131.480469 C 82.328125 134.175781 80.339844 135.695312 77.941406 135.695312 C 74.445312 135.695312 73.621094 133.238281 73.621094 131.773438 L 73.621094 130.777344 L 74.507812 130.777344 L 74.507812 131.558594 Z M 74.515625 131.574219 "></path><path style=" stroke:none;fill-rule:nonzero;fill:rgb(100%,100%,100%);fill-opacity:1;" d="M 84.335938 120.320312 L 85.222656 120.320312 L 85.222656 126.953125 L 91.855469 126.953125 L 91.855469 120.320312 L 92.742188 120.320312 L 92.742188 135.453125 L 91.855469 135.453125 L 91.855469 127.761719 L 85.222656 127.761719 L 85.222656 135.453125 L 84.335938 135.453125 Z M 84.335938 120.320312 "></path><path style=" stroke:none;fill-rule:nonzero;fill:rgb(100%,100%,100%);fill-opacity:1;" d="M 95.359375 120.320312 L 96.25 120.320312 L 96.25 135.453125 L 95.359375 135.453125 Z M 95.359375 120.320312 "></path><path style=" stroke:none;fill-rule:nonzero;fill:rgb(100%,100%,100%);fill-opacity:1;" d="M 98.828125 120.320312 L 102.753906 120.320312 C 106.292969 120.382812 106.863281 122.886719 106.863281 124.515625 C 106.863281 127.082031 105.269531 128.707031 102.5625 128.707031 L 99.71875 128.707031 L 99.71875 135.449219 L 98.828125 135.449219 L 98.828125 120.3125 Z M 102.648438 127.992188 C 104.445312 127.992188 105.972656 127.015625 105.972656 124.515625 C 105.972656 122.351562 104.828125 121.039062 102.773438 121.039062 L 99.726562 121.039062 L 99.726562 127.992188 Z M 102.648438 127.992188 "></path></g></svg>